<svg width="33" height="33" viewBox="0 0 33 33" fill="none" xmlns="http://www.w3.org/2000/svg">
<rect x="0.5" y="0.297852" width="32" height="32" rx="16" fill="#B6F223"/>
<path d="M10.5 15.7979C10.2239 15.7979 10 16.0217 10 16.2979C10 16.574 10.2239 16.7979 10.5 16.7979V15.7979ZM22.8536 16.6514C23.0488 16.4561 23.0488 16.1396 22.8536 15.9443L19.6716 12.7623C19.4763 12.5671 19.1597 12.5671 18.9645 12.7623C18.7692 12.9576 18.7692 13.2742 18.9645 13.4694L21.7929 16.2979L18.9645 19.1263C18.7692 19.3215 18.7692 19.6381 18.9645 19.8334C19.1597 20.0286 19.4763 20.0286 19.6716 19.8334L22.8536 16.6514ZM10.5 16.7979H22.5V15.7979H10.5V16.7979Z" fill="#0B0B0B"/>
</svg>
