<svg width="52" height="51" viewBox="0 0 52 51" fill="none" xmlns="http://www.w3.org/2000/svg">
<path d="M11.125 16.592V39.0681C11.125 39.4492 11.2475 39.7623 11.4926 40.0074C11.7377 40.2525 12.0515 40.375 12.434 40.375H39.5681C39.9492 40.375 40.2623 40.2525 40.5074 40.0074C40.7525 39.7623 40.875 39.4492 40.875 39.0681V16.592H32.375V28.2157C32.375 28.8674 32.1065 29.3632 31.5696 29.7032C31.0327 30.0432 30.4781 30.0631 29.9058 29.7627L26 27.829L22.0921 29.7627C21.5212 30.0617 20.9673 30.0418 20.4304 29.7032C19.8935 29.3632 19.625 28.8674 19.625 28.2157V16.592H11.125ZM12.434 42.5C11.482 42.5 10.6717 42.1657 10.003 41.497C9.33433 40.8283 9 40.0187 9 39.0681V15.9078C9 15.4941 9.06587 15.1045 9.19762 14.739C9.32937 14.3735 9.52771 14.037 9.79263 13.7296L13.1034 9.75588C13.4108 9.34079 13.7954 9.02771 14.2572 8.81663C14.7191 8.60554 15.2142 8.5 15.7426 8.5H36.1766C36.7036 8.5 37.2051 8.60554 37.6811 8.81663C38.1571 9.02771 38.5488 9.34008 38.8562 9.75375L42.2074 13.8125C42.4723 14.1199 42.6706 14.4635 42.8024 14.8431C42.9341 15.2214 43 15.618 43 16.0331V39.0681C43 40.0173 42.6657 40.8269 41.997 41.497C41.3283 42.1657 40.5187 42.5 39.5681 42.5H12.434ZM11.9325 14.467H40.025L37.1988 11.0712C37.0613 10.9353 36.9041 10.8269 36.727 10.7461C36.5499 10.6654 36.3657 10.625 36.1745 10.625H15.783C15.5932 10.625 15.409 10.6661 15.2305 10.7483C15.052 10.8304 14.8962 10.9395 14.763 11.0755L11.9325 14.467ZM21.7479 16.592V27.5421L25.9979 25.4171L30.2479 27.5421V16.5941L21.7479 16.592Z" fill="#E2E2E2"/>
</svg>
