<?xml version="1.0" encoding="UTF-8"?>
<svg xmlns="http://www.w3.org/2000/svg" width="121" height="121" viewBox="0 0 121 121" fill="none">
  <path d="M45.5007 81.1665L28.1507 63.8165C27.2158 62.8817 25.9479 62.3564 24.6257 62.3564C23.3036 62.3564 22.0356 62.8817 21.1007 63.8165C20.1658 64.7514 19.6406 66.0194 19.6406 67.3415C19.6406 67.9962 19.7696 68.6444 20.0201 69.2493C20.2706 69.8541 20.6378 70.4036 21.1007 70.8665L42.0007 91.7666C43.9507 93.7166 47.1007 93.7166 49.0507 91.7666L101.951 38.8665C102.886 37.9317 103.411 36.6637 103.411 35.3415C103.411 34.0194 102.886 32.7514 101.951 31.8165C101.016 30.8817 99.7479 30.3564 98.4257 30.3564C97.1036 30.3564 95.8356 30.8817 94.9007 31.8165L45.5007 81.1665Z" fill="#B6F223"></path>
</svg>
